<?xml version="1.0" encoding="UTF-8"?>
<svg version="1.1" viewBox="0 0 800 600" xml:space="preserve" xmlns="http://www.w3.org/2000/svg"><rect x="440" y="20" width="350" height="240" ry="8" fill="#aa87de"/><rect x="10" y="110" width="350" height="390" ry="8" fill="#d38d5f"/><rect x="570" y="60" width="110" height="190" ry="8" fill="#eed7f4"/><rect x="450" y="60" width="110" height="190" ry="8" fill="#eed7f4"/><path d="m320 380v40h90v-260h50" fill="none" stroke="#00accb" stroke-linecap="round" stroke-linejoin="round" stroke-width="8"/><path d="m300 380v-20h40v20l-10 20h-20z" fill="#00accb"/><rect width="100" height="100" ry="8" fill="#4d85cf"/><path d="m79.998 2.5a2.5 2.5 0 0 0-2.0781 1.1133l-6.4785 9.7168c-6.3234-3.7078-13.661-5.8277-21.441-5.8301a2.5002 2.5002 0 0 0-2e-3 0c-9.2526 0.01011-17.882 3.0077-24.914 8.1191l-8.0039-12.006a2.5 2.5 0 0 0-1.5898-1.0645 2.5 2.5 0 0 0-0.65039-0.04297 2.5 2.5 0 0 0-1.2266 0.41406 2.5 2.5 0 0 0-0.69336 3.4668l8.2832 12.424c-7.1309 6.5917-12.033 15.615-13.326 25.877a2.5002 2.5002 0 0 0 2.4805 2.8125h79.316a2.5002 2.5002 0 0 0 2.4805-2.8125c-1.4799-11.746-7.6858-21.872-16.555-28.58l6.4805-9.7207a2.5 2.5 0 0 0-0.69336-3.4668 2.5 2.5 0 0 0-1.3887-0.41992zm-49.998 22.5a5 5 0 0 1 5 5 5 5 0 0 1-5 5 5 5 0 0 1-5-5 5 5 0 0 1 5-5zm40 0a5 5 0 0 1 5 5 5 5 0 0 1-5 5 5 5 0 0 1-5-5 5 5 0 0 1 5-5zm-60 27.5a2.5002 2.5002 0 0 0-2.5 2.5v35a2.5002 2.5002 0 0 0 2.5 2.5h80a2.5002 2.5002 0 0 0 2.5-2.5v-35a2.5002 2.5002 0 0 0-2.5-2.5z" fill="#fff"/><rect x="20" y="150" width="160" height="280" ry="8"/><rect x="28" y="166" width="144" height="240" ry="8" fill="#d5fff6"/><path d="m68.422 204.45a1.6 1.6 0 0 0-1.2188 0.15626 1.6 1.6 0 0 0-0.59375 2.1875l8.2812 14.469a40 40 0 0 0-14.891 29.531h80a40 40 0 0 0-14.266-30.625l7.6562-13.375a1.6 1.6 0 0 0-0.59374-2.1875 1.6 1.6 0 0 0-2.1875 0.59374l-7.5 13.125a40 40 0 0 0-23.109-7.5312 40 40 0 0 0-22.766 8.125l-7.8438-13.719a1.6 1.6 0 0 0-0.96875-0.75zm14.781 22.344a4 4 0 0 1 4 4 4 4 0 0 1-4 4 4 4 0 0 1-4-4 4 4 0 0 1 4-4zm33.594 0a4 4 0 0 1 4 4 4 4 0 0 1-4 4 4 4 0 0 1-4-4 4 4 0 0 1 4-4zm-68 27.203a8 8 0 0 0-8 8v40a8 8 0 0 0 8 8 8 8 0 0 0 8-8v-40a8 8 0 0 0-8-8zm11.203 0v56c-1.0749 4.2997 3.568 8 8 8h8v16c0 4.4183 3.5817 8 8 8 4.4183 0 8-3.5817 8-8v-16h16v16c0 4.4183 3.5817 8 8 8s8-3.5817 8-8v-16h8c4.432 0 8-3.568 8-8v-56zm91.203 0a8 8 0 0 0-8 8v40a8 8 0 0 0 8 8 8 8 0 0 0 8-8v-40a8 8 0 0 0-8-8z" fill="#008000"/><rect x="80" y="420" width="40" height="40" ry="8"/><rect x="200" y="360" width="40" height="40" ry="8"/><path d="m100 440v50h120v-120" fill="none" stroke="#000" stroke-linecap="round" stroke-linejoin="round" stroke-width="8"/><rect x="190" y="150" width="160" height="220" ry="8" fill="#008000"/><g fill="#b3b3b3"><rect x="200" y="320" width="40" height="50"/><rect x="250" y="320" width="40" height="50"/><rect x="300" y="320" width="40" height="50"/></g><g><rect x="320" y="160" width="20" height="140"/><rect x="300" y="300" width="20" height="20"/><rect x="185" y="280" width="35" height="20"/><rect x="190" y="260" width="50" height="10"/></g><rect x="190" y="280" width="20" height="20" fill="#b3b3b3"/><rect x="235" y="160" width="55" height="10"/><rect x="280" y="170" width="30" height="20" fill="#b3b3b3"/><rect x="250" y="200" width="40" height="40" fill="#b3b3b3"/><g><rect x="250" y="250" width="40" height="20"/><rect x="230" y="290" width="20" height="20"/><rect x="280" y="280" width="20" height="20"/></g><g fill="#b3b3b3"><rect x="190" y="230" width="20" height="20"/><rect x="190" y="200" width="20" height="20"/><rect x="190" y="170" width="20" height="20"/></g><rect x="440" y="350" width="350" height="240" ry="8" fill="#999"/><text x="351.28906" y="489.57031" fill="#000000" font-family="monospace" font-size="26.667px" font-weight="bold" text-align="end" text-anchor="end" xml:space="preserve"><tspan x="351.28906" y="489.57031">Remote</tspan></text><text x="780.72919" y="249.57031" fill="#000000" font-family="monospace" font-size="26.667px" font-weight="bold" text-align="end" text-anchor="end" xml:space="preserve"><tspan x="780.72919" y="249.57031">Server</tspan></text><rect x="440" y="390" width="350" height="200" ry="8" fill="#e6e6e6"/><rect x="442" y="381" width="346" height="207" ry="8" fill="#fff"/><rect x="445" y="355" width="95" height="40" ry="5" fill="#e6e6e6"/><rect x="550" y="405" width="130" height="183" fill="#d5fff6"/><rect x="440" y="380" width="350" height="25" fill="#e6e6e6"/><text x="780" y="580" fill="#000000" font-family="monospace" font-size="26.667px" font-weight="bold" text-align="end" text-anchor="end" xml:space="preserve"><tspan x="780" y="580">Client</tspan></text><path d="m660 360v-120" fill="none" stroke="#00accb" stroke-linecap="round" stroke-linejoin="round" stroke-width="8"/><g fill="#000000" font-family="monospace" font-size="26.667px" font-weight="bold"><text x="100" y="140" text-align="center" text-anchor="middle" xml:space="preserve"><tspan x="100" y="140">Android</tspan></text><text x="270" y="140" text-align="center" text-anchor="middle" xml:space="preserve"><tspan x="270" y="140">RaspberryPi</tspan></text><text x="450.59897" y="46.888042" xml:space="preserve"><tspan x="450.59897" y="46.888042">DenoDeploy</tspan></text><text x="160" y="480" text-align="center" text-anchor="middle" xml:space="preserve"><tspan x="160" y="480">[ADB]</tspan></text></g><text x="570" y="310" fill="#00accb" font-family="monospace" font-size="26.667px" font-weight="bold" text-align="center" text-anchor="middle" xml:space="preserve"><tspan x="570" y="310">[WebSocket]</tspan></text><text transform="rotate(-90)" x="-280" y="396.36069" fill="#00accb" font-family="monospace" font-size="26.667px" font-weight="bold" text-align="center" text-anchor="middle" xml:space="preserve"><tspan x="-280" y="396.36069">[WebSocket]</tspan></text><path d="m583.42 418.45a1.6 1.6 0 0 0-1.2188 0.15626 1.6 1.6 0 0 0-0.59375 2.1875l8.2812 14.469a40 40 0 0 0-14.891 29.531h80a40 40 0 0 0-14.266-30.625l7.6562-13.375a1.6 1.6 0 0 0-0.59374-2.1875 1.6 1.6 0 0 0-2.1875 0.59374l-7.5 13.125a40 40 0 0 0-23.109-7.5312 40 40 0 0 0-22.766 8.125l-7.8438-13.719a1.6 1.6 0 0 0-0.96875-0.75zm14.781 22.344a4 4 0 0 1 4 4 4 4 0 0 1-4 4 4 4 0 0 1-4-4 4 4 0 0 1 4-4zm33.594 0a4 4 0 0 1 4 4 4 4 0 0 1-4 4 4 4 0 0 1-4-4 4 4 0 0 1 4-4zm-68 27.203a8 8 0 0 0-8 8v40a8 8 0 0 0 8 8 8 8 0 0 0 8-8v-40a8 8 0 0 0-8-8zm11.203 0v56c-1.0749 4.2997 3.568 8 8 8h8v16c0 4.4183 3.5817 8 8 8 4.4183 0 8-3.5817 8-8v-16h16v16c0 4.4183 3.5817 8 8 8s8-3.5817 8-8v-16h8c4.432 0 8-3.568 8-8v-56zm91.203 0a8 8 0 0 0-8 8v40a8 8 0 0 0 8 8 8 8 0 0 0 8-8v-40a8 8 0 0 0-8-8z" fill="#008000" stroke-linecap="round" stroke-linejoin="round" stroke-width="80"/><path d="m580 160h-30" fill="none" stroke="#000" stroke-linecap="round" stroke-linejoin="round" stroke-width="8"/></svg>
