<?xml version="1.0" encoding="UTF-8"?>
<svg version="1.1" viewBox="0 0 100 100" xml:space="preserve" xmlns="http://www.w3.org/2000/svg"><rect width="100" height="100" fill="#4d85cf"/><path d="m79.998 2.5a2.5 2.5 0 0 0-2.0781 1.1133l-6.4785 9.7168c-6.3234-3.7078-13.661-5.8277-21.441-5.8301a2.5002 2.5002 0 0 0-0.001953 0c-9.2526 0.010107-17.882 3.0077-24.914 8.1191l-8.0039-12.006a2.5 2.5 0 0 0-1.5898-1.0645 2.5 2.5 0 0 0-0.65039-0.042969 2.5 2.5 0 0 0-1.2266 0.41406 2.5 2.5 0 0 0-0.69336 3.4668l8.2832 12.424c-7.1309 6.5917-12.033 15.615-13.326 25.877a2.5002 2.5002 0 0 0 2.4805 2.8125h79.316a2.5002 2.5002 0 0 0 2.4805-2.8125c-1.4799-11.746-7.6858-21.872-16.555-28.58l6.4805-9.7207a2.5 2.5 0 0 0-0.69336-3.4668 2.5 2.5 0 0 0-1.3887-0.41992zm-49.998 22.5a5 5 0 0 1 5 5 5 5 0 0 1-5 5 5 5 0 0 1-5-5 5 5 0 0 1 5-5zm40 0a5 5 0 0 1 5 5 5 5 0 0 1-5 5 5 5 0 0 1-5-5 5 5 0 0 1 5-5zm-60 27.5a2.5002 2.5002 0 0 0-2.5 2.5v35a2.5002 2.5002 0 0 0 2.5 2.5h80a2.5002 2.5002 0 0 0 2.5-2.5v-35a2.5002 2.5002 0 0 0-2.5-2.5h-80z" fill="#fff"/></svg>
